# xmcd CD database file
#
# Track frame offsets:
#	150
#	5075
#	27767
#	45850
#	66637
#	92027
#	112262
#	131772
#	147090
#	166635
#	186690
#	207872
#
# Disc length: 3043 seconds
#
# Revision: 7
# Processed by: cddbd v1.5.1PL0 Copyright (c) Steve Scherf et al.
# Submitted via: CDex 1.50
#
DISCID=ac0be10c
DTITLE=滴草由実 - CONTROL Your touch
DYEAR=2003
DGENRE=Japanese Pop
TTITLE0=〜Prologue〜
TTITLE1=CONTROL Your touch
TTITLE2=Don't you wanna see me <oh> tonight ?
TTITLE3=MOVE ON 〜bounce mix〜
TTITLE4=眠れぬ少女
TTITLE5=星月夜 〜angel vs devil version〜
TTITLE6=Boy
TTITLE7=SOMETIMES
TTITLE8=TAKE ME TAKE ME
TTITLE9=any more 〜no more tears version〜
TTITLE10=Tell me how you feel
TTITLE11=I believe in you
EXTD=YEAR: 2003
EXTT0=
EXTT1=
EXTT2=
EXTT3=
EXTT4=
EXTT5=
EXTT6=
EXTT7=
EXTT8=
EXTT9=
EXTT10=
EXTT11=
PLAYORDER=
